<svg width="131" height="4" viewBox="0 0 131 4" fill="none" xmlns="http://www.w3.org/2000/svg">
<path d="M1.93 3.99963C0.87 3.99963 0 3.13964 0 2.06964C0 1.00964 0.86 0.139648 1.93 0.139648C3 0.139648 3.86 0.999641 3.86 2.06964C3.86 3.13964 3 3.99963 1.93 3.99963Z" fill="#2972D7"/>
<path d="M20.0706 3.99963C19.0106 3.99963 18.1406 3.13964 18.1406 2.06964C18.1406 1.00964 19.0006 0.139648 20.0706 0.139648C21.1406 0.139648 22.0006 0.999641 22.0006 2.06964C22.0006 3.13964 21.1306 3.99963 20.0706 3.99963Z" fill="#2972D7"/>
<path d="M38.1995 3.99963C37.1395 3.99963 36.2695 3.13964 36.2695 2.06964C36.2695 1.00964 37.1295 0.139648 38.1995 0.139648C39.2595 0.139648 40.1295 0.999641 40.1295 2.06964C40.1295 3.13964 39.2695 3.99963 38.1995 3.99963Z" fill="#2972D7"/>
<path d="M56.3402 3.99963C55.2802 3.99963 54.4102 3.13964 54.4102 2.06964C54.4102 1.00964 55.2702 0.139648 56.3402 0.139648C57.4002 0.139648 58.2702 0.999641 58.2702 2.06964C58.2702 3.13964 57.4002 3.99963 56.3402 3.99963Z" fill="#2972D7"/>
<path d="M74.4808 3.99963C73.4208 3.99963 72.5508 3.13964 72.5508 2.06964C72.5508 1.00964 73.4108 0.139648 74.4808 0.139648C75.5408 0.139648 76.4108 0.999641 76.4108 2.06964C76.4008 3.13964 75.5408 3.99963 74.4808 3.99963Z" fill="#2972D7"/>
<path d="M92.6097 3.99963C91.5497 3.99963 90.6797 3.13964 90.6797 2.06964C90.6797 1.00964 91.5397 0.139648 92.6097 0.139648C93.6697 0.139648 94.5397 0.999641 94.5397 2.06964C94.5397 3.13964 93.6697 3.99963 92.6097 3.99963Z" fill="#2972D7"/>
<path d="M110.75 3.99963C109.69 3.99963 108.82 3.13964 108.82 2.06964C108.82 1.00964 109.68 0.139648 110.75 0.139648C111.81 0.139648 112.68 0.999641 112.68 2.06964C112.67 3.13964 111.81 3.99963 110.75 3.99963Z" fill="#2972D7"/>
<path d="M128.879 3.99963C127.819 3.99963 126.949 3.13964 126.949 2.06964C126.949 1.00964 127.809 0.139648 128.879 0.139648C129.939 0.139648 130.809 0.999641 130.809 2.06964C130.809 3.13964 129.949 3.99963 128.879 3.99963Z" fill="#2972D7"/>
</svg>
