<svg width="79" height="46" viewBox="0 0 79 46" fill="none" xmlns="http://www.w3.org/2000/svg">
<path d="M3.8609 0.857297V8.5791M7.7218 4.7182H0H7.7218Z" stroke="#2972D7" stroke-width="0.593985" stroke-miterlimit="10"/>
<path d="M3.8609 19.8646V27.5864M7.7218 23.7255H0H7.7218Z" stroke="#2972D7" stroke-width="0.593985" stroke-miterlimit="10"/>
<path d="M3.8609 38.2782V46M7.7218 42.1391H0H7.7218Z" stroke="#2972D7" stroke-width="0.593985" stroke-miterlimit="10"/>
<path d="M3.8609 0.857297V8.5791M7.7218 4.7182H0H7.7218Z" stroke="#2972D7" stroke-width="1.18797" stroke-miterlimit="10"/>
<path d="M3.8609 19.8646V27.5864M7.7218 23.7255H0H7.7218Z" stroke="#2972D7" stroke-width="1.18797" stroke-miterlimit="10"/>
<path d="M3.8609 38.2782V46M7.7218 42.1391H0H7.7218Z" stroke="#2972D7" stroke-width="1.18797" stroke-miterlimit="10"/>
<path d="M21.6802 0.857297V8.5791M25.5411 4.7182H17.8193H25.5411Z" stroke="#2972D7" stroke-width="0.593985" stroke-miterlimit="10"/>
<path d="M21.6802 19.8646V27.5864M25.5411 23.7255H17.8193H25.5411Z" stroke="#2972D7" stroke-width="0.593985" stroke-miterlimit="10"/>
<path d="M21.6802 38.2782V46M25.5411 42.1391H17.8193H25.5411Z" stroke="#2972D7" stroke-width="0.593985" stroke-miterlimit="10"/>
<path d="M21.6802 0.857297V8.5791M25.5411 4.7182H17.8193H25.5411Z" stroke="#2972D7" stroke-width="1.18797" stroke-miterlimit="10"/>
<path d="M21.6802 19.8646V27.5864M25.5411 23.7255H17.8193H25.5411Z" stroke="#2972D7" stroke-width="1.18797" stroke-miterlimit="10"/>
<path d="M21.6802 38.2782V46M25.5411 42.1391H17.8193H25.5411Z" stroke="#2972D7" stroke-width="1.18797" stroke-miterlimit="10"/>
<path d="M39.4996 19.8646V27.5864M43.3605 23.7255H35.6387H43.3605Z" stroke="#2972D7" stroke-width="0.593985" stroke-miterlimit="10"/>
<path d="M39.4996 38.2782V46M43.3605 42.1391H35.6387H43.3605Z" stroke="#2972D7" stroke-width="0.593985" stroke-miterlimit="10"/>
<path d="M39.4996 19.8646V27.5864M43.3605 23.7255H35.6387H43.3605Z" stroke="#2972D7" stroke-width="1.18797" stroke-miterlimit="10"/>
<path d="M39.4996 38.2782V46M43.3605 42.1391H35.6387H43.3605Z" stroke="#2972D7" stroke-width="1.18797" stroke-miterlimit="10"/>
<path d="M57.3199 19.8646V27.5864M61.1808 23.7255H53.459H61.1808Z" stroke="#2972D7" stroke-width="0.593985" stroke-miterlimit="10"/>
<path d="M57.3199 38.2782V46M61.1808 42.1391H53.459H61.1808Z" stroke="#2972D7" stroke-width="0.593985" stroke-miterlimit="10"/>
<path d="M57.3199 19.8646V27.5864M61.1808 23.7255H53.459H61.1808Z" stroke="#2972D7" stroke-width="1.18797" stroke-miterlimit="10"/>
<path d="M57.3199 38.2782V46M61.1808 42.1391H53.459H61.1808Z" stroke="#2972D7" stroke-width="1.18797" stroke-miterlimit="10"/>
<path d="M75.1392 19.8646V27.5864M79.0001 23.7255H71.2783H79.0001Z" stroke="#2972D7" stroke-width="0.593985" stroke-miterlimit="10"/>
<path d="M75.1392 38.2782V46M79.0001 42.1391H71.2783H79.0001Z" stroke="#2972D7" stroke-width="0.593985" stroke-miterlimit="10"/>
<path d="M75.1392 19.8646V27.5864M79.0001 23.7255H71.2783H79.0001Z" stroke="#2972D7" stroke-width="1.18797" stroke-miterlimit="10"/>
<path d="M75.1392 38.2782V46M79.0001 42.1391H71.2783H79.0001Z" stroke="#2972D7" stroke-width="1.18797" stroke-miterlimit="10"/>
</svg>
