<svg width="23" height="22" viewBox="0 0 23 22" fill="none" xmlns="http://www.w3.org/2000/svg">
<path d="M11.5384 1.95454C14.4384 1.95454 14.7818 1.96726 15.9223 2.01813C16.9823 2.06477 17.5546 2.24284 17.9362 2.39123C18.4408 2.58626 18.8054 2.82369 19.1827 3.20103C19.5643 3.58261 19.7975 3.94299 19.9925 4.44753C20.1409 4.82911 20.319 5.40572 20.3656 6.46142C20.4165 7.60616 20.4292 7.94958 20.4292 10.8454C20.4292 13.7454 20.4165 14.0888 20.3656 15.2293C20.319 16.2892 20.1409 16.8616 19.9925 17.2432C19.7975 17.7477 19.5601 18.1123 19.1827 18.4897C18.8011 18.8713 18.4408 19.1044 17.9362 19.2995C17.5546 19.4479 16.978 19.6259 15.9223 19.6726C14.7776 19.7234 14.4342 19.7362 11.5384 19.7362C8.63839 19.7362 8.29497 19.7234 7.15447 19.6726C6.09453 19.6259 5.52216 19.4479 5.14058 19.2995C4.63604 19.1044 4.27142 18.867 3.89408 18.4897C3.5125 18.1081 3.27931 17.7477 3.08428 17.2432C2.93589 16.8616 2.75782 16.285 2.71118 15.2293C2.66031 14.0845 2.64759 13.7411 2.64759 10.8454C2.64759 7.94534 2.66031 7.60192 2.71118 6.46142C2.75782 5.40148 2.93589 4.82911 3.08428 4.44753C3.27931 3.94299 3.51674 3.57837 3.89408 3.20103C4.27566 2.81945 4.63604 2.58626 5.14058 2.39123C5.52216 2.24284 6.09877 2.06477 7.15447 2.01813C8.29497 1.96726 8.63839 1.95454 11.5384 1.95454ZM11.5384 0C8.59176 0 8.22289 0.0127193 7.06544 0.0635967C5.91222 0.114474 5.11938 0.301024 4.43253 0.56813C3.71601 0.847955 3.10972 1.21682 2.50767 1.8231C1.90139 2.42515 1.53253 3.03144 1.2527 3.74372C0.985594 4.43481 0.799044 5.22341 0.748167 6.37663C0.69729 7.53832 0.68457 7.90719 0.68457 10.8538C0.68457 13.8005 0.69729 14.1693 0.748167 15.3268C0.799044 16.48 0.985594 17.2729 1.2527 17.9597C1.53253 18.6762 1.90139 19.2825 2.50767 19.8846C3.10972 20.4866 3.71601 20.8597 4.42829 21.1353C5.11938 21.4024 5.90798 21.5889 7.0612 21.6398C8.21865 21.6907 8.58752 21.7034 11.5342 21.7034C14.4808 21.7034 14.8497 21.6907 16.0071 21.6398C17.1603 21.5889 17.9532 21.4024 18.64 21.1353C19.3523 20.8597 19.9586 20.4866 20.5606 19.8846C21.1627 19.2825 21.5358 18.6762 21.8114 17.9639C22.0785 17.2729 22.265 16.4843 22.3159 15.331C22.3668 14.1736 22.3795 13.8047 22.3795 10.8581C22.3795 7.91143 22.3668 7.54256 22.3159 6.38511C22.265 5.23189 22.0785 4.43905 21.8114 3.7522C21.5443 3.03144 21.1754 2.42515 20.5691 1.8231C19.9671 1.22106 19.3608 0.847956 18.6485 0.57237C17.9574 0.305264 17.1688 0.118714 16.0156 0.0678364C14.8539 0.0127193 14.485 0 11.5384 0Z" fill="white"/>
</svg>
