<svg width="23" height="22" viewBox="0 0 23 22" fill="none" xmlns="http://www.w3.org/2000/svg">
<g clip-path="url(#clip0_289_12589)">
<path d="M11.305 1.95454C14.205 1.95454 14.5484 1.96726 15.6889 2.01813C16.7489 2.06477 17.3212 2.24284 17.7028 2.39123C18.2074 2.58626 18.572 2.82369 18.9493 3.20103C19.3309 3.58261 19.5641 3.94299 19.7591 4.44753C19.9075 4.82911 20.0856 5.40572 20.1322 6.46142C20.1831 7.60616 20.1958 7.94958 20.1958 10.8454C20.1958 13.7454 20.1831 14.0888 20.1322 15.2293C20.0856 16.2892 19.9075 16.8616 19.7591 17.2432C19.5641 17.7477 19.3267 18.1123 18.9493 18.4897C18.5677 18.8713 18.2074 19.1044 17.7028 19.2995C17.3212 19.4479 16.7446 19.6259 15.6889 19.6726C14.5442 19.7234 14.2008 19.7362 11.305 19.7362C8.40499 19.7362 8.06157 19.7234 6.92107 19.6726C5.86113 19.6259 5.28876 19.4479 4.90718 19.2995C4.40264 19.1044 4.03802 18.867 3.66068 18.4897C3.2791 18.1081 3.04592 17.7477 2.85089 17.2432C2.70249 16.8616 2.52442 16.285 2.47779 15.2293C2.42691 14.0845 2.41419 13.7411 2.41419 10.8454C2.41419 7.94534 2.42691 7.60192 2.47779 6.46142C2.52442 5.40148 2.70249 4.82911 2.85089 4.44753C3.04592 3.94299 3.28334 3.57837 3.66068 3.20103C4.04226 2.81945 4.40264 2.58626 4.90718 2.39123C5.28876 2.24284 5.86537 2.06477 6.92107 2.01813C8.06157 1.96726 8.40499 1.95454 11.305 1.95454ZM11.305 0C8.35836 0 7.9895 0.0127193 6.83204 0.0635967C5.67882 0.114474 4.88598 0.301024 4.19914 0.56813C3.48261 0.847955 2.87632 1.21682 2.27428 1.8231C1.66799 2.42515 1.29913 3.03144 1.0193 3.74372C0.752196 4.43481 0.565646 5.22341 0.514769 6.37663C0.463891 7.53832 0.451172 7.90719 0.451172 10.8538C0.451172 13.8005 0.463891 14.1693 0.514769 15.3268C0.565646 16.48 0.752196 17.2729 1.0193 17.9597C1.29913 18.6762 1.66799 19.2825 2.27428 19.8846C2.87632 20.4866 3.48261 20.8597 4.1949 21.1353C4.88598 21.4024 5.67458 21.5889 6.8278 21.6398C7.98526 21.6907 8.35412 21.7034 11.3008 21.7034C14.2474 21.7034 14.6163 21.6907 15.7737 21.6398C16.9269 21.5889 17.7198 21.4024 18.4066 21.1353C19.1189 20.8597 19.7252 20.4866 20.3272 19.8846C20.9293 19.2825 21.3024 18.6762 21.578 17.9639C21.8451 17.2729 22.0316 16.4843 22.0825 15.331C22.1334 14.1736 22.1461 13.8047 22.1461 10.8581C22.1461 7.91143 22.1334 7.54256 22.0825 6.38511C22.0316 5.23189 21.8451 4.43905 21.578 3.7522C21.3109 3.03144 20.942 2.42515 20.3357 1.8231C19.7337 1.22106 19.1274 0.847956 18.4151 0.57237C17.724 0.305264 16.9354 0.118714 15.7822 0.0678364C14.6205 0.0127193 14.2516 0 11.305 0Z" fill="#E2EEFF"/>
<path d="M11.3048 5.27832C8.22672 5.27832 5.72949 7.77555 5.72949 10.8536C5.72949 13.9317 8.22672 16.4289 11.3048 16.4289C14.3829 16.4289 16.8801 13.9317 16.8801 10.8536C16.8801 7.77555 14.3829 5.27832 11.3048 5.27832ZM11.3048 14.4702C9.30786 14.4702 7.68827 12.8506 7.68827 10.8536C7.68827 8.85669 9.30786 7.2371 11.3048 7.2371C13.3017 7.2371 14.9213 8.85669 14.9213 10.8536C14.9213 12.8506 13.3017 14.4702 11.3048 14.4702Z" fill="#E2EEFF"/>
<path d="M18.4021 5.05845C18.4021 5.77921 17.817 6.36006 17.1004 6.36006C16.3797 6.36006 15.7988 5.77497 15.7988 5.05845C15.7988 4.33769 16.3839 3.75684 17.1004 3.75684C17.817 3.75684 18.4021 4.34193 18.4021 5.05845Z" fill="#E2EEFF"/>
</g>
<defs>
<clipPath id="clip0_289_12589">
<rect width="21.7077" height="21.7077" fill="white" transform="translate(0.451172)"/>
</clipPath>
</defs>
</svg>
