<svg width="22" height="22" viewBox="0 0 22 22" fill="none" xmlns="http://www.w3.org/2000/svg">
<g clip-path="url(#clip0_289_12590)">
<path d="M20.3938 0H1.8956C1.00949 0 0.292969 0.699563 0.292969 1.56448V20.1389C0.292969 21.0039 1.00949 21.7077 1.8956 21.7077H20.3938C21.2799 21.7077 22.0006 21.0039 22.0006 20.1432V1.56448C22.0006 0.699563 21.2799 0 20.3938 0ZM6.73319 18.4981H3.51096V8.13613H6.73319V18.4981ZM5.12208 6.72429C4.08757 6.72429 3.25233 5.88905 3.25233 4.85879C3.25233 3.82852 4.08757 2.99328 5.12208 2.99328C6.15234 2.99328 6.98758 3.82852 6.98758 4.85879C6.98758 5.88481 6.15234 6.72429 5.12208 6.72429ZM18.7911 18.4981H15.5731V13.4613C15.5731 12.2614 15.5519 10.7139 13.8984 10.7139C12.2237 10.7139 11.9693 12.024 11.9693 13.3765V18.4981H8.75557V8.13613H11.8421V9.55222H11.8845C12.3127 8.73818 13.3642 7.87751 14.9287 7.87751C18.1891 7.87751 18.7911 10.0228 18.7911 12.8126V18.4981Z" fill="#E2EEFF"/>
</g>
<defs>
<clipPath id="clip0_289_12590">
<rect width="21.7077" height="21.7077" fill="white" transform="translate(0.292969)"/>
</clipPath>
</defs>
</svg>
