<svg width="1193" height="1283" viewBox="0 0 1193 1283" fill="none" xmlns="http://www.w3.org/2000/svg">
<g filter="url(#filter0_dddddd_290_13059)">
<path d="M625.604 611.809V633H619.598V611.809H607.757V607.194H637.493V611.809H625.604ZM644.842 633V607.194H650.848V617.204H669.598V607.194H675.652V633H669.598V621.892H650.848V633H644.842ZM688.836 633V607.194H715.252V611.589H694.842V617.351H706.756V621.745H694.842V628.142H715.496V633H688.836ZM615.113 676V644.001H621.138L636.214 663.346L650.957 644.001H656.921V676H650.019V656.231C650.019 655.848 650.039 655.364 650.079 654.778C650.14 654.193 650.21 653.537 650.291 652.811C649.887 653.638 649.534 654.324 649.231 654.869C648.929 655.394 648.656 655.828 648.414 656.171L636.396 672.155H634.912L622.863 656.11C622.419 655.505 622.036 654.94 621.713 654.415C621.41 653.87 621.158 653.345 620.956 652.841C621.017 653.507 621.057 654.112 621.077 654.657C621.118 655.202 621.138 655.727 621.138 656.231V676H615.113ZM672.572 676V644.001H680.02V676H672.572ZM724.098 649.602H703.148V656.474H723.099C726.227 656.474 728.336 657.008 729.426 658.078C730.536 659.148 731.091 661.136 731.091 664.042V668.432C731.091 671.338 730.536 673.326 729.426 674.396C728.336 675.465 726.227 676 723.099 676H703.33C700.202 676 698.083 675.465 696.973 674.396C695.883 673.326 695.338 671.338 695.338 668.432V667.554L701.907 666.191V669.976H724.521V662.68H704.571C701.463 662.68 699.364 662.145 698.274 661.075C697.185 660.006 696.64 658.018 696.64 655.111V651.569C696.64 648.663 697.185 646.675 698.274 645.605C699.364 644.536 701.463 644.001 704.571 644.001H722.735C725.743 644.001 727.811 644.516 728.941 645.545C730.092 646.574 730.667 648.401 730.667 651.024V651.69L724.098 653.234V649.602ZM773.201 649.602H752.252V656.474H772.202C775.33 656.474 777.439 657.008 778.529 658.078C779.639 659.148 780.194 661.136 780.194 664.042V668.432C780.194 671.338 779.639 673.326 778.529 674.396C777.439 675.465 775.33 676 772.202 676H752.434C749.305 676 747.186 675.465 746.076 674.396C744.986 673.326 744.441 671.338 744.441 668.432V667.554L751.011 666.191V669.976H773.625V662.68H753.675C750.567 662.68 748.468 662.145 747.378 661.075C746.288 660.006 745.743 658.018 745.743 655.111V651.569C745.743 648.663 746.288 646.675 747.378 645.605C748.468 644.536 750.567 644.001 753.675 644.001H771.839C774.846 644.001 776.915 644.516 778.045 645.545C779.195 646.574 779.771 648.401 779.771 651.024V651.69L773.201 653.234V649.602ZM795.664 676V644.001H803.111V676H795.664ZM818.793 651.569C818.793 648.663 819.338 646.675 820.428 645.605C821.518 644.536 823.617 644.001 826.725 644.001H850.277C853.385 644.001 855.484 644.536 856.574 645.605C857.664 646.675 858.209 648.663 858.209 651.569V668.432C858.209 671.358 857.664 673.356 856.574 674.426C855.484 675.475 853.385 676 850.277 676H826.725C823.617 676 821.518 675.475 820.428 674.426C819.338 673.356 818.793 671.358 818.793 668.432V651.569ZM826.24 669.976H850.792V649.723H826.24V669.976ZM873.83 676V644.001H878.916L901.439 662.861C902.206 663.487 902.882 664.082 903.468 664.647C904.053 665.192 904.588 665.757 905.072 666.343C904.951 664.547 904.87 663.275 904.83 662.528C904.79 661.782 904.77 661.206 904.77 660.803V644.001H911.46V676H906.374L882.882 656.231C882.317 655.727 881.822 655.273 881.398 654.869C880.975 654.465 880.581 654.052 880.218 653.628C880.319 654.617 880.389 655.555 880.43 656.443C880.49 657.311 880.521 658.068 880.521 658.714V676H873.83Z" fill="white"/>
</g>
<defs>
<filter id="filter0_dddddd_290_13059" x="0.940857" y="0.378357" width="1517.34" height="1282.44" filterUnits="userSpaceOnUse" color-interpolation-filters="sRGB">
<feFlood flood-opacity="0" result="BackgroundImageFix"/>
<feColorMatrix in="SourceAlpha" type="matrix" values="0 0 0 0 0 0 0 0 0 0 0 0 0 0 0 0 0 0 127 0" result="hardAlpha"/>
<feOffset/>
<feGaussianBlur stdDeviation="7.224"/>
<feColorMatrix type="matrix" values="0 0 0 0 0.160784 0 0 0 0 0.447059 0 0 0 0 0.843137 0 0 0 1 0"/>
<feBlend mode="normal" in2="BackgroundImageFix" result="effect1_dropShadow_290_13059"/>
<feColorMatrix in="SourceAlpha" type="matrix" values="0 0 0 0 0 0 0 0 0 0 0 0 0 0 0 0 0 0 127 0" result="hardAlpha"/>
<feOffset/>
<feGaussianBlur stdDeviation="14.448"/>
<feColorMatrix type="matrix" values="0 0 0 0 0.160784 0 0 0 0 0.447059 0 0 0 0 0.843137 0 0 0 1 0"/>
<feBlend mode="normal" in2="effect1_dropShadow_290_13059" result="effect2_dropShadow_290_13059"/>
<feColorMatrix in="SourceAlpha" type="matrix" values="0 0 0 0 0 0 0 0 0 0 0 0 0 0 0 0 0 0 127 0" result="hardAlpha"/>
<feOffset/>
<feGaussianBlur stdDeviation="50.568"/>
<feColorMatrix type="matrix" values="0 0 0 0 0.160784 0 0 0 0 0.447059 0 0 0 0 0.843137 0 0 0 1 0"/>
<feBlend mode="normal" in2="effect2_dropShadow_290_13059" result="effect3_dropShadow_290_13059"/>
<feColorMatrix in="SourceAlpha" type="matrix" values="0 0 0 0 0 0 0 0 0 0 0 0 0 0 0 0 0 0 127 0" result="hardAlpha"/>
<feOffset/>
<feGaussianBlur stdDeviation="101.136"/>
<feColorMatrix type="matrix" values="0 0 0 0 0.160784 0 0 0 0 0.447059 0 0 0 0 0.843137 0 0 0 1 0"/>
<feBlend mode="normal" in2="effect3_dropShadow_290_13059" result="effect4_dropShadow_290_13059"/>
<feColorMatrix in="SourceAlpha" type="matrix" values="0 0 0 0 0 0 0 0 0 0 0 0 0 0 0 0 0 0 127 0" result="hardAlpha"/>
<feOffset/>
<feGaussianBlur stdDeviation="173.376"/>
<feColorMatrix type="matrix" values="0 0 0 0 0.160784 0 0 0 0 0.447059 0 0 0 0 0.843137 0 0 0 1 0"/>
<feBlend mode="normal" in2="effect4_dropShadow_290_13059" result="effect5_dropShadow_290_13059"/>
<feColorMatrix in="SourceAlpha" type="matrix" values="0 0 0 0 0 0 0 0 0 0 0 0 0 0 0 0 0 0 127 0" result="hardAlpha"/>
<feOffset/>
<feGaussianBlur stdDeviation="303.408"/>
<feColorMatrix type="matrix" values="0 0 0 0 0.160784 0 0 0 0 0.447059 0 0 0 0 0.843137 0 0 0 1 0"/>
<feBlend mode="normal" in2="effect5_dropShadow_290_13059" result="effect6_dropShadow_290_13059"/>
<feBlend mode="normal" in="SourceGraphic" in2="effect6_dropShadow_290_13059" result="shape"/>
</filter>
</defs>
</svg>
