<svg width="22" height="16" viewBox="0 0 22 16" fill="none" xmlns="http://www.w3.org/2000/svg">
<path d="M21.4914 3.51257C21.4914 3.51257 21.2794 2.01593 20.6265 1.35876C19.7998 0.493847 18.8755 0.489607 18.4515 0.43873C15.4158 0.218262 10.8581 0.218262 10.8581 0.218262H10.8496C10.8496 0.218262 6.29183 0.218262 3.25615 0.43873C2.83217 0.489607 1.9079 0.493847 1.08114 1.35876C0.428218 2.01593 0.220468 3.51257 0.220468 3.51257C0.220468 3.51257 0 5.27208 0 7.02734V8.67238C0 10.4276 0.216229 12.1872 0.216229 12.1872C0.216229 12.1872 0.428217 13.6838 1.0769 14.341C1.90366 15.2059 2.98904 15.1762 3.47238 15.2695C5.21069 15.4348 10.8538 15.4857 10.8538 15.4857C10.8538 15.4857 15.4158 15.4772 18.4515 15.261C18.8755 15.2101 19.7998 15.2059 20.6265 14.341C21.2794 13.6838 21.4914 12.1872 21.4914 12.1872C21.4914 12.1872 21.7077 10.4319 21.7077 8.67238V7.02734C21.7077 5.27208 21.4914 3.51257 21.4914 3.51257ZM8.61099 10.6693V4.56827L14.4746 7.62939L8.61099 10.6693Z" fill="white"/>
</svg>
