<svg width="23" height="22" viewBox="0 0 23 22" fill="none" xmlns="http://www.w3.org/2000/svg">
<g clip-path="url(#clip0_289_12587)">
<path d="M22.258 6.51208C22.258 6.51208 22.046 5.01544 21.3931 4.35827C20.5664 3.49336 19.6421 3.48912 19.2181 3.43824C16.1824 3.21777 11.6247 3.21777 11.6247 3.21777H11.6162C11.6162 3.21777 7.05843 3.21777 4.02275 3.43824C3.59877 3.48912 2.6745 3.49336 1.84774 4.35827C1.19482 5.01544 0.98707 6.51208 0.98707 6.51208C0.98707 6.51208 0.766602 8.27159 0.766602 10.0269V11.6719C0.766602 13.4272 0.98283 15.1867 0.98283 15.1867C0.98283 15.1867 1.19482 16.6833 1.84351 17.3405C2.67026 18.2054 3.75565 18.1757 4.23898 18.269C5.97729 18.4343 11.6204 18.4852 11.6204 18.4852C11.6204 18.4852 16.1824 18.4767 19.2181 18.2605C19.6421 18.2096 20.5664 18.2054 21.3931 17.3405C22.046 16.6833 22.258 15.1867 22.258 15.1867C22.258 15.1867 22.4743 13.4314 22.4743 11.6719V10.0269C22.4743 8.27159 22.258 6.51208 22.258 6.51208ZM9.37759 13.6688V7.56779L15.2412 10.6289L9.37759 13.6688Z" fill="#E2EEFF"/>
</g>
<defs>
<clipPath id="clip0_289_12587">
<rect width="21.7077" height="21.7077" fill="white" transform="translate(0.766602)"/>
</clipPath>
</defs>
</svg>
